<?xml version="1.0" standalone="no"?>
<!DOCTYPE svg PUBLIC "-//W3C//DTD SVG 20010904//EN"
 "http://www.w3.org/TR/2001/REC-SVG-20010904/DTD/svg10.dtd">
<svg version="1.0" xmlns="http://www.w3.org/2000/svg"
 width="512.000000pt" height="512.000000pt" viewBox="0 0 512.000000 512.000000"
 preserveAspectRatio="xMidYMid meet">
<metadata>
Created by potrace 1.14, written by Peter Selinger 2001-2017
</metadata>
<g transform="translate(0.000000,512.000000) scale(0.100000,-0.100000)"
fill="#000000" stroke="none">
<path d="M2333 5089 c-369 -33 -764 -163 -1091 -361 -323 -195 -662 -536 -855
-859 -212 -357 -328 -729 -359 -1152 -52 -696 210 -1408 705 -1923 400 -417
894 -670 1484 -761 150 -23 546 -23 696 0 589 91 1070 335 1472 748 323 332
539 715 648 1154 58 235 72 348 72 620 0 272 -14 385 -72 620 -89 356 -256
689 -490 980 -104 129 -311 330 -438 426 -513 385 -1139 565 -1772 508z m902
-818 c-17 -15 -194 -172 -395 -347 l-365 -319 -120 -5 -119 -5 -48 -325 c-26
-179 -47 -335 -47 -347 l-1 -23 344 0 c190 0 347 -3 349 -7 3 -5 -61 -478
-142 -1053 l-146 -1045 -707 -3 -708 -2 5 27 c3 16 23 159 45 318 22 160 42
305 45 323 l6 32 350 0 c271 0 351 3 354 12 4 11 95 665 95 681 0 4 -155 7
-344 7 -190 0 -347 4 -350 9 -5 7 275 2015 289 2079 l5 22 817 0 818 0 -30
-29z m745 17 c0 -35 -358 -2547 -364 -2557 -5 -8 -108 -11 -353 -11 l-346 0 7
58 c9 82 345 2461 352 2495 l6 27 349 0 c273 0 349 -3 349 -12z m-397 -2805
c4 -8 -92 -685 -97 -691 -2 -1 -160 -1 -353 0 l-349 3 42 305 c24 168 46 324
49 348 l6 42 349 0 c192 0 351 -3 353 -7z"/>
</g>
</svg>
