<?xml version="1.0" encoding="UTF-8" standalone="no" ?>
<!DOCTYPE svg PUBLIC "-//W3C//DTD SVG 1.1//EN" "http://www.w3.org/Graphics/SVG/1.1/DTD/svg11.dtd">
<svg xmlns="http://www.w3.org/2000/svg" xmlns:xlink="http://www.w3.org/1999/xlink" version="1.1" width="1200" height="300" viewBox="0 0 1200 300" xml:space="preserve">
<desc>Created with Fabric.js 4.6.0</desc>
<defs>
</defs>
<g transform="matrix(1 0 0 1 743.16 163.83)" id="3UBKPZ_uggr8Q4leJbfKD"  >
<linearGradient id="SVGID_31_0" gradientUnits="userSpaceOnUse" gradientTransform="matrix(1 0 0 1 362.01 37.71)"  x1="0" y1="126.123" x2="762.298" y2="126.123">
<stop offset="0%" style="stop-color:#708FDD;stop-opacity: 1"/>
<stop offset="100%" style="stop-color:#49C1EA;stop-opacity: 1"/>
</linearGradient>
<path style="stroke: none; stroke-width: 1; stroke-dasharray: none; stroke-linecap: butt; stroke-dashoffset: 0; stroke-linejoin: miter; stroke-miterlimit: 4; fill: url(#SVGID_31_0); fill-rule: nonzero; opacity: 1;" vector-effect="non-scaling-stroke"  transform=" translate(-743.16, -163.83)" d="M 391.579 37.708 L 489.675 37.708 L 441.748 79.749 L 427.734 79.749 L 421.708 121.79 L 463.749 121.79 L 446.092 247.913 L 362.01 247.913 L 367.896 205.872 L 409.937 205.872 L 415.822 163.831 L 373.781 163.831 L 391.579 37.708 Z M 580.497 93.763 L 558.775 247.913 L 510.849 289.954 L 532.43 135.804 L 518.416 135.804 L 508.606 205.872 L 460.68 247.913 L 484.363 79.749 L 532.29 37.708 L 524.442 93.763 L 580.497 93.763 Z M 573.363 247.913 L 595.084 93.763 L 637.125 93.763 L 615.404 247.913 L 573.363 247.913 Z M 644.973 37.708 L 639.087 79.749 L 597.046 79.749 L 602.932 37.708 L 644.973 37.708 Z M 749.809 93.763 L 701.742 135.804 L 645.687 135.804 L 651.713 93.763 L 749.809 93.763 Z M 643.725 149.817 L 741.821 149.817 L 693.894 191.858 L 679.88 191.858 L 672.033 247.913 L 624.106 289.954 L 643.725 149.817 Z M 786.398 135.804 L 776.588 205.872 L 818.629 205.872 L 812.743 247.913 L 728.661 247.913 L 752.345 79.749 L 800.271 37.708 L 792.424 93.763 L 848.478 93.763 L 800.411 135.804 L 786.398 135.804 Z M 827.331 247.913 L 851.014 79.749 L 898.941 37.708 L 875.258 205.872 L 889.272 205.872 L 907.069 79.749 L 954.996 37.708 L 925.427 247.913 L 827.331 247.913 Z M 934.129 289.954 L 969.583 37.708 L 1067.679 37.708 L 1049.882 163.831 L 993.827 163.831 L 982.056 247.913 L 934.129 289.954 Z M 1019.752 79.749 L 1005.739 79.749 L 999.713 121.79 L 1013.726 121.79 L 1019.752 79.749 Z M 1060.546 191.858 L 1082.267 37.708 L 1124.308 37.708 L 1102.587 191.858 L 1060.546 191.858 Z M 1100.625 205.872 L 1094.739 247.913 L 1052.698 247.913 L 1058.584 205.872 L 1100.625 205.872 Z" stroke-linecap="round" />
</g>
<g transform="matrix(1.08 0 0 1.07 197.85 141.46)" id="Kf9rOLmEesu0ikDjcKuqT"  >
<g style="" vector-effect="non-scaling-stroke"   >
		<g transform="matrix(1.92 0 0 1.92 0 0)" id="4poPeZuqZbapv5swzbh-r"  >
<linearGradient id="SVGID_23" gradientUnits="userSpaceOnUse" gradientTransform="matrix(1 0 0 1 -62.51 -62.51)"  x1="0" y1="62.51120730242897" x2="125.02242000000001" y2="62.51121">
<stop offset="0%" style="stop-color:#49C1EA;stop-opacity: 1"/>
<stop offset="100%" style="stop-color:#708FDD;stop-opacity: 1"/>
</linearGradient>
<path style="stroke: rgb(204,127,165); stroke-width: 0; stroke-dasharray: none; stroke-linecap: butt; stroke-dashoffset: 0; stroke-linejoin: miter; stroke-miterlimit: 4; fill: url(#SVGID_23); fill-rule: nonzero; opacity: 1;" vector-effect="non-scaling-stroke"  transform=" translate(0, 0)" d="M 0 -62.51121 C 34.50619 -62.51121 62.51121 -34.506190000000004 62.51121 0 C 62.51121 34.50619 34.506190000000004 62.51121 0 62.51121 C -34.50619 62.51121 -62.51121 34.506190000000004 -62.51121 0 C -62.51121 -34.50619 -34.506190000000004 -62.51121 0 -62.51121 z" stroke-linecap="round" />
</g>
		<g transform="matrix(1.88 0 0 1.88 -0.3 0.47)" id="sGr4yiTT8BQuy_rZ3EYkt"  >
<path style="stroke: none; stroke-width: 1; stroke-dasharray: none; stroke-linecap: butt; stroke-dashoffset: 0; stroke-linejoin: miter; stroke-miterlimit: 4; fill: rgb(255,255,255); fill-rule: nonzero; opacity: 1;" vector-effect="non-scaling-stroke"  transform=" translate(-63.97, -64.38)" d="M 40.734 20.432 L 81.749 20.432 L 61.71 38.01 L 55.851 38.01 L 53.331 55.588 L 70.91 55.588 L 63.527 108.322 L 28.37 108.322 L 30.831 90.744 L 48.41 90.744 L 50.87 73.166 L 33.292 73.166 L 40.734 20.432 Z M 72.907 84.885 L 81.989 20.432 L 99.567 20.432 L 90.485 84.885 L 72.907 84.885 Z M 89.665 90.744 L 87.204 108.322 L 69.626 108.322 L 72.087 90.744 L 89.665 90.744 Z" stroke-linecap="round" />
</g>
</g>
</g>
</svg>