<?xml version="1.0" encoding="UTF-8" standalone="no" ?>
<!DOCTYPE svg PUBLIC "-//W3C//DTD SVG 1.1//EN" "http://www.w3.org/Graphics/SVG/1.1/DTD/svg11.dtd">
<svg xmlns="http://www.w3.org/2000/svg" xmlns:xlink="http://www.w3.org/1999/xlink" version="1.1" width="1600" height="600" viewBox="0 0 800 300" xml:space="preserve">
<desc>Created with Fabric.js 4.6.0</desc>
<defs>
</defs>
<g transform="matrix(1 0 0 1 400 156.73)" id="3UBKPZ_uggr8Q4leJbfKD"  >
<path style="stroke: none; stroke-width: 1; stroke-dasharray: none; stroke-linecap: butt; stroke-dashoffset: 0; stroke-linejoin: miter; stroke-miterlimit: 4; fill: rgb(255,255,255); fill-rule: nonzero; opacity: 1;" vector-effect="non-scaling-stroke"  transform=" translate(-743.16, -163.83)" d="M 391.579 37.708 L 489.675 37.708 L 441.748 79.749 L 427.734 79.749 L 421.708 121.79 L 463.749 121.79 L 446.092 247.913 L 362.01 247.913 L 367.896 205.872 L 409.937 205.872 L 415.822 163.831 L 373.781 163.831 L 391.579 37.708 Z M 580.497 93.763 L 558.775 247.913 L 510.849 289.954 L 532.43 135.804 L 518.416 135.804 L 508.606 205.872 L 460.68 247.913 L 484.363 79.749 L 532.29 37.708 L 524.442 93.763 L 580.497 93.763 Z M 573.363 247.913 L 595.084 93.763 L 637.125 93.763 L 615.404 247.913 L 573.363 247.913 Z M 644.973 37.708 L 639.087 79.749 L 597.046 79.749 L 602.932 37.708 L 644.973 37.708 Z M 749.809 93.763 L 701.742 135.804 L 645.687 135.804 L 651.713 93.763 L 749.809 93.763 Z M 643.725 149.817 L 741.821 149.817 L 693.894 191.858 L 679.88 191.858 L 672.033 247.913 L 624.106 289.954 L 643.725 149.817 Z M 786.398 135.804 L 776.588 205.872 L 818.629 205.872 L 812.743 247.913 L 728.661 247.913 L 752.345 79.749 L 800.271 37.708 L 792.424 93.763 L 848.478 93.763 L 800.411 135.804 L 786.398 135.804 Z M 827.331 247.913 L 851.014 79.749 L 898.941 37.708 L 875.258 205.872 L 889.272 205.872 L 907.069 79.749 L 954.996 37.708 L 925.427 247.913 L 827.331 247.913 Z M 934.129 289.954 L 969.583 37.708 L 1067.679 37.708 L 1049.882 163.831 L 993.827 163.831 L 982.056 247.913 L 934.129 289.954 Z M 1019.752 79.749 L 1005.739 79.749 L 999.713 121.79 L 1013.726 121.79 L 1019.752 79.749 Z M 1060.546 191.858 L 1082.267 37.708 L 1124.308 37.708 L 1102.587 191.858 L 1060.546 191.858 Z M 1100.625 205.872 L 1094.739 247.913 L 1052.698 247.913 L 1058.584 205.872 L 1100.625 205.872 Z" stroke-linecap="round" />
</g>
</svg>